{"title":"Ice Age Continental Drift Arabic 1080p BLuRay X264 AC3 - alrmoth","uid":7992573,"size":4406298740,"categoryP":"video","categoryS":"hd___movies","magnet":"?xt=urn:btih:4a02606062d996465220f9bed4a7e2bf2837a92d&amp;dn=Ice+Age+Continental+Drift+Arabic+1080p+BLuRay+X264+AC3+-+alrmoth&amp;tr=udp%3A%2F%2Ftracker.openbittorrent.com%3A80&amp;tr=udp%3A%2F%2Fopen.demonii.com%3A1337&amp;tr=udp%3A%2F%2Ftracker.coppersurfer.tk%3A6969&amp;tr=udp%3A%2F%2Fexodus.desync.com%3A6969","seeders":1,"leechers":0,"uploader":".alrmothe","files":25,"time":1357525777,"description":"***************************************************************\n\nIce Age Continental Drift 1080p BLuRay X264 AC3 - alrmothe\n\n***************************************************************\n\nTiTLE: Ice Age: Continental Drift\nYEAR:2012\nGENRE : Animation | Adventure | Comedy \niMDB URL : http://www.imdb.com/title/tt1667889/\nSIZE : 4.09 GB\nFormat : mkv \nOverall bit rate:6678 Kbps\nSub: Arabic SDH\nEncoded / Released By: alrmothe\n \n****************************\n\nVideo\nFormat : AVC\nFormat/Info : Advanced Video Codec\nFormat profile : &lt;a class=&quot;__cf_email__&quot; href=&quot;/cdn-cgi/l/email-protection&quot; data-cfemail=&quot;85cdece2edc5c9b1abb5&quot;&gt;[email&amp;#160;protected]&lt;/a&gt;&lt;script cf-hash='f9e31' type=&quot;text/javascript&quot;&gt;\n/* &lt;![CDATA[ */!function(){try{var t=&quot;currentScript&quot;in document?document.currentScript:function(){for(var t=document.getElementsByTagName(&quot;script&quot;),e=t.length;e--;)if(t[e].getAttribute(&quot;cf-hash&quot;))return t[e]}();if(t&amp;&amp;t.previousSibling){var e,r,n,i,c=t.previousSibling,a=c.getAttribute(&quot;data-cfemail&quot;);if(a){for(e=&quot;&quot;,r=parseInt(a.substr(0,2),16),n=2;a.length-n;n+=2)i=parseInt(a.substr(n,2),16)^r,e+=String.fromCharCode(i);e=document.createTextNode(e),c.parentNode.replaceChild(e,c)}}}catch(u){}}();/* ]]&gt; */&lt;/script&gt;\nRuntime: 1h 34min 12sec\nbit rate: 6300 Kbps\nWidth: 1920 pixels\nHeight: 800 pixels\nDisplay aspect ratio : 2.40:1\nFrame rate: 23.976 fps\nBit depth : 8 bits\nBits/(Pixel*Frame) : 0.171\nStream size : 3.78 GiB (92%)\n\nAudio: Arabic\nFormat: AC3\nBit rate: 348 Kbps\nSampling rate: 48.0 KHz\nChannel(s): 6 channels(5.1)\nStream size : 241 MiB (5%)\nLanguage : Arabic\n***************************************\n\n\nScreenshots\n &lt;a href=&quot;\nhttp://img577.imageshack.us/img577/4092/vlcsnap2013010620h52m24.png&quot; rel=&quot;nofollow&quot; target=&quot;_NEW&quot;&gt;\nhttp://img577.imageshack.us/img577/4092/vlcsnap2013010620h52m24.png&lt;/a&gt;\n &lt;a href=&quot;\nhttp://img708.imageshack.us/img708/5440/85903902.png&quot; rel=&quot;nofollow&quot; target=&quot;_NEW&quot;&gt;\nhttp://img708.imageshack.us/img708/5440/85903902.png&lt;/a&gt;\n &lt;a href=&quot;\nhttp://img27.imageshack.us/img27/1386/38054552.png&quot; rel=&quot;nofollow&quot; target=&quot;_NEW&quot;&gt;\nhttp://img27.imageshack.us/img27/1386/38054552.png&lt;/a&gt;\n &lt;a href=&quot;\nhttp://img541.imageshack.us/img541/7572/25403031.png&quot; rel=&quot;nofollow&quot; target=&quot;_NEW&quot;&gt;\nhttp://img541.imageshack.us/img541/7572/25403031.png&lt;/a&gt;\n &lt;a href=&quot;\nhttp://img811.imageshack.us/img811/6383/vlcsnap2013010622h11m08.png&quot; rel=&quot;nofollow&quot; target=&quot;_NEW&quot;&gt;\nhttp://img811.imageshack.us/img811/6383/vlcsnap2013010622h11m08.png&lt;/a&gt;\n &lt;a href=&quot;\nhttp://img824.imageshack.us/img824/4319/vlcsnap2013010620h57m24.png&quot; rel=&quot;nofollow&quot; target=&quot;_NEW&quot;&gt;\nhttp://img824.imageshack.us/img824/4319/vlcsnap2013010620h57m24.png&lt;/a&gt;\n &lt;a href=&quot;\nhttp://img195.imageshack.us/img195/5532/vlcsnap2013010620h57m48.png&quot; rel=&quot;nofollow&quot; target=&quot;_NEW&quot;&gt;\nhttp://img195.imageshack.us/img195/5532/vlcsnap2013010620h57m48.png&lt;/a&gt;\n &lt;a href=&quot;\nhttp://img854.imageshack.us/img854/6070/vlcsnap2013010620h55m35.png&quot; rel=&quot;nofollow&quot; target=&quot;_NEW&quot;&gt;\nhttp://img854.imageshack.us/img854/6070/vlcsnap2013010620h55m35.png&lt;/a&gt;\n &lt;a href=&quot;\nhttp://img820.imageshack.us/img820/1696/iceagecontinentaldriftj.jpg&quot; rel=&quot;nofollow&quot; target=&quot;_NEW&quot;&gt;\nhttp://img820.imageshack.us/img820/1696/iceagecontinentaldriftj.jpg&lt;/a&gt;","torrent":{"xt":"urn:btih:4a02606062d996465220f9bed4a7e2bf2837a92d","amp;dn":"Ice+Age+Continental+Drift+Arabic+1080p+BLuRay+X264+AC3+-+alrmoth","amp;tr":["udp%3A%2F%2Ftracker.openbittorrent.com%3A80","udp%3A%2F%2Fopen.demonii.com%3A1337","udp%3A%2F%2Ftracker.coppersurfer.tk%3A6969","udp%3A%2F%2Fexodus.desync.com%3A6969"],"infoHash":"4a02606062d996465220f9bed4a7e2bf2837a92d","infoHashBuffer":{"type":"Buffer","data":[74,2,96,96,98,217,150,70,82,32,249,190,212,167,226,191,40,55,169,45]},"announce":[],"urlList":[]}}